<mxfile host="app.diagrams.net" modified="2023-12-25T14:40:21.621Z" agent="Mozilla/5.0 (Windows NT 10.0; Win64; x64) AppleWebKit/537.36 (KHTML, like Gecko) Chrome/120.0.0.0 Safari/537.36 Edg/120.0.0.0" etag="v1kzJa_SAdFCJ8UpQQC2" version="22.1.11" type="google">
  <diagram name="第 1 页" id="KL1ZL4BunKM7I4JeBt82">
    <mxGraphModel grid="1" page="1" gridSize="10" guides="1" tooltips="1" connect="1" arrows="1" fold="1" pageScale="1" pageWidth="827" pageHeight="1169" math="0" shadow="0">
      <root>
        <mxCell id="0" />
        <mxCell id="1" parent="0" />
        <mxCell id="9BEuGBWWBBOvplIL2fFb-1" value="進入停車場" style="ellipse;whiteSpace=wrap;html=1;" vertex="1" parent="1">
          <mxGeometry x="120" y="110" width="110" height="70" as="geometry" />
        </mxCell>
        <mxCell id="9BEuGBWWBBOvplIL2fFb-2" value="添加車輛訊息" style="ellipse;whiteSpace=wrap;html=1;" vertex="1" parent="1">
          <mxGeometry x="330" y="110" width="120" height="80" as="geometry" />
        </mxCell>
        <mxCell id="9BEuGBWWBBOvplIL2fFb-3" value="查看車輛" style="ellipse;whiteSpace=wrap;html=1;" vertex="1" parent="1">
          <mxGeometry x="510" y="210" width="120" height="80" as="geometry" />
        </mxCell>
        <mxCell id="9BEuGBWWBBOvplIL2fFb-4" value="離開停車場" style="ellipse;whiteSpace=wrap;html=1;" vertex="1" parent="1">
          <mxGeometry x="110" y="220" width="120" height="80" as="geometry" />
        </mxCell>
        <mxCell id="9BEuGBWWBBOvplIL2fFb-5" value="刪除車輛訊息" style="ellipse;whiteSpace=wrap;html=1;" vertex="1" parent="1">
          <mxGeometry x="330" y="220" width="120" height="80" as="geometry" />
        </mxCell>
        <mxCell id="9BEuGBWWBBOvplIL2fFb-7" value="登錄系統" style="ellipse;whiteSpace=wrap;html=1;" vertex="1" parent="1">
          <mxGeometry x="510" y="30" width="120" height="80" as="geometry" />
        </mxCell>
        <mxCell id="9BEuGBWWBBOvplIL2fFb-8" value="車主&lt;br&gt;" style="shape=umlActor;verticalLabelPosition=bottom;verticalAlign=top;html=1;outlineConnect=0;" vertex="1" parent="1">
          <mxGeometry x="40" y="170" width="30" height="60" as="geometry" />
        </mxCell>
        <mxCell id="9BEuGBWWBBOvplIL2fFb-9" value="" style="endArrow=none;html=1;rounded=0;" edge="1" parent="1">
          <mxGeometry width="50" height="50" relative="1" as="geometry">
            <mxPoint x="70" y="200" as="sourcePoint" />
            <mxPoint x="120" y="150" as="targetPoint" />
          </mxGeometry>
        </mxCell>
        <mxCell id="9BEuGBWWBBOvplIL2fFb-10" value="" style="endArrow=none;html=1;rounded=0;entryX=0;entryY=0.5;entryDx=0;entryDy=0;" edge="1" parent="1" source="9BEuGBWWBBOvplIL2fFb-8" target="9BEuGBWWBBOvplIL2fFb-4">
          <mxGeometry width="50" height="50" relative="1" as="geometry">
            <mxPoint x="50" y="310" as="sourcePoint" />
            <mxPoint x="100" y="260" as="targetPoint" />
          </mxGeometry>
        </mxCell>
        <mxCell id="9BEuGBWWBBOvplIL2fFb-13" value="支付費用" style="ellipse;whiteSpace=wrap;html=1;" vertex="1" parent="1">
          <mxGeometry x="240" y="370" width="120" height="80" as="geometry" />
        </mxCell>
        <mxCell id="9BEuGBWWBBOvplIL2fFb-14" value="" style="endArrow=classic;html=1;rounded=0;exitX=1;exitY=0.5;exitDx=0;exitDy=0;entryX=0;entryY=0.5;entryDx=0;entryDy=0;" edge="1" parent="1" source="9BEuGBWWBBOvplIL2fFb-1" target="9BEuGBWWBBOvplIL2fFb-2">
          <mxGeometry relative="1" as="geometry">
            <mxPoint x="200" y="300" as="sourcePoint" />
            <mxPoint x="300" y="300" as="targetPoint" />
          </mxGeometry>
        </mxCell>
        <mxCell id="9BEuGBWWBBOvplIL2fFb-16" value="" style="endArrow=classic;html=1;rounded=0;exitX=1;exitY=0.5;exitDx=0;exitDy=0;entryX=0;entryY=0;entryDx=0;entryDy=0;" edge="1" parent="1" source="9BEuGBWWBBOvplIL2fFb-2" target="9BEuGBWWBBOvplIL2fFb-3">
          <mxGeometry relative="1" as="geometry">
            <mxPoint x="200" y="300" as="sourcePoint" />
            <mxPoint x="300" y="300" as="targetPoint" />
          </mxGeometry>
        </mxCell>
        <mxCell id="9BEuGBWWBBOvplIL2fFb-17" value="Label" style="edgeLabel;resizable=0;html=1;align=center;verticalAlign=middle;" connectable="0" vertex="1" parent="9BEuGBWWBBOvplIL2fFb-16">
          <mxGeometry relative="1" as="geometry" />
        </mxCell>
        <mxCell id="9BEuGBWWBBOvplIL2fFb-21" value="擴展" style="edgeLabel;html=1;align=center;verticalAlign=middle;resizable=0;points=[];" connectable="0" vertex="1" parent="9BEuGBWWBBOvplIL2fFb-16">
          <mxGeometry x="0.0664" relative="1" as="geometry">
            <mxPoint as="offset" />
          </mxGeometry>
        </mxCell>
        <mxCell id="9BEuGBWWBBOvplIL2fFb-18" value="" style="endArrow=classic;html=1;rounded=0;exitX=1;exitY=0.5;exitDx=0;exitDy=0;" edge="1" parent="1" source="9BEuGBWWBBOvplIL2fFb-5" target="9BEuGBWWBBOvplIL2fFb-3">
          <mxGeometry relative="1" as="geometry">
            <mxPoint x="200" y="300" as="sourcePoint" />
            <mxPoint x="300" y="300" as="targetPoint" />
          </mxGeometry>
        </mxCell>
        <mxCell id="9BEuGBWWBBOvplIL2fFb-19" value="Label" style="edgeLabel;resizable=0;html=1;align=center;verticalAlign=middle;" connectable="0" vertex="1" parent="9BEuGBWWBBOvplIL2fFb-18">
          <mxGeometry relative="1" as="geometry" />
        </mxCell>
        <mxCell id="9BEuGBWWBBOvplIL2fFb-22" value="擴展" style="edgeLabel;html=1;align=center;verticalAlign=middle;resizable=0;points=[];" connectable="0" vertex="1" parent="9BEuGBWWBBOvplIL2fFb-18">
          <mxGeometry x="0.1076" y="1" relative="1" as="geometry">
            <mxPoint as="offset" />
          </mxGeometry>
        </mxCell>
        <mxCell id="9BEuGBWWBBOvplIL2fFb-20" value="包括" style="text;html=1;align=center;verticalAlign=middle;resizable=0;points=[];autosize=1;strokeColor=none;fillColor=none;" vertex="1" parent="1">
          <mxGeometry x="255" y="118" width="50" height="30" as="geometry" />
        </mxCell>
        <mxCell id="9BEuGBWWBBOvplIL2fFb-25" value="管理員" style="shape=umlActor;verticalLabelPosition=bottom;verticalAlign=top;html=1;outlineConnect=0;" vertex="1" parent="1">
          <mxGeometry x="710" y="190" width="30" height="60" as="geometry" />
        </mxCell>
        <mxCell id="9BEuGBWWBBOvplIL2fFb-27" value="" style="endArrow=none;html=1;rounded=0;entryX=1;entryY=0.5;entryDx=0;entryDy=0;exitX=0.25;exitY=0.1;exitDx=0;exitDy=0;exitPerimeter=0;" edge="1" parent="1" source="9BEuGBWWBBOvplIL2fFb-25" target="9BEuGBWWBBOvplIL2fFb-7">
          <mxGeometry width="50" height="50" relative="1" as="geometry">
            <mxPoint x="410" y="320" as="sourcePoint" />
            <mxPoint x="460" y="270" as="targetPoint" />
          </mxGeometry>
        </mxCell>
        <mxCell id="9BEuGBWWBBOvplIL2fFb-33" value="" style="endArrow=none;html=1;rounded=0;" edge="1" parent="1" target="9BEuGBWWBBOvplIL2fFb-25">
          <mxGeometry width="50" height="50" relative="1" as="geometry">
            <mxPoint x="630" y="250" as="sourcePoint" />
            <mxPoint x="460" y="270" as="targetPoint" />
          </mxGeometry>
        </mxCell>
        <mxCell id="9BEuGBWWBBOvplIL2fFb-34" value="查詢車輛訊息" style="ellipse;whiteSpace=wrap;html=1;" vertex="1" parent="1">
          <mxGeometry x="510" y="340" width="120" height="80" as="geometry" />
        </mxCell>
        <mxCell id="9BEuGBWWBBOvplIL2fFb-35" value="" style="endArrow=classic;html=1;rounded=0;entryX=0.5;entryY=1;entryDx=0;entryDy=0;exitX=0.5;exitY=0;exitDx=0;exitDy=0;" edge="1" parent="1" source="9BEuGBWWBBOvplIL2fFb-34" target="9BEuGBWWBBOvplIL2fFb-3">
          <mxGeometry relative="1" as="geometry">
            <mxPoint x="380" y="300" as="sourcePoint" />
            <mxPoint x="480" y="300" as="targetPoint" />
          </mxGeometry>
        </mxCell>
        <mxCell id="9BEuGBWWBBOvplIL2fFb-36" value="Label" style="edgeLabel;resizable=0;html=1;align=center;verticalAlign=middle;" connectable="0" vertex="1" parent="9BEuGBWWBBOvplIL2fFb-35">
          <mxGeometry relative="1" as="geometry" />
        </mxCell>
        <mxCell id="9BEuGBWWBBOvplIL2fFb-38" value="擴展" style="edgeLabel;html=1;align=center;verticalAlign=middle;resizable=0;points=[];" connectable="0" vertex="1" parent="9BEuGBWWBBOvplIL2fFb-35">
          <mxGeometry x="-0.048" y="-3" relative="1" as="geometry">
            <mxPoint as="offset" />
          </mxGeometry>
        </mxCell>
        <mxCell id="9BEuGBWWBBOvplIL2fFb-39" value="" style="endArrow=classic;html=1;rounded=0;exitX=0.58;exitY=0.973;exitDx=0;exitDy=0;exitPerimeter=0;" edge="1" parent="1" source="9BEuGBWWBBOvplIL2fFb-4" target="9BEuGBWWBBOvplIL2fFb-13">
          <mxGeometry relative="1" as="geometry">
            <mxPoint x="380" y="300" as="sourcePoint" />
            <mxPoint x="480" y="300" as="targetPoint" />
          </mxGeometry>
        </mxCell>
        <mxCell id="9BEuGBWWBBOvplIL2fFb-40" value="Label" style="edgeLabel;resizable=0;html=1;align=center;verticalAlign=middle;" connectable="0" vertex="1" parent="9BEuGBWWBBOvplIL2fFb-39">
          <mxGeometry relative="1" as="geometry" />
        </mxCell>
        <mxCell id="9BEuGBWWBBOvplIL2fFb-41" value="包括" style="edgeLabel;html=1;align=center;verticalAlign=middle;resizable=0;points=[];" connectable="0" vertex="1" parent="9BEuGBWWBBOvplIL2fFb-39">
          <mxGeometry x="0.0053" y="1" relative="1" as="geometry">
            <mxPoint as="offset" />
          </mxGeometry>
        </mxCell>
      </root>
    </mxGraphModel>
  </diagram>
</mxfile>
